<svg width="1200" height="700" viewBox="0 0 1200 700" xmlns="http://www.w3.org/2000/svg">
  <defs>
    <linearGradient id="panel" x1="0" y1="0" x2="1" y2="1">
      <stop offset="0%" stop-color="#0d0d0d" />
      <stop offset="100%" stop-color="#090909" />
    </linearGradient>
  </defs>
  <rect width="1200" height="700" fill="#070707" />
  <rect x="0" y="0" width="220" height="700" fill="#0b0b0b" />
  <rect x="0" y="0" width="1200" height="64" fill="#090909" />
  <circle cx="40" cy="32" r="12" fill="#2bf58c" />
  <text x="62" y="38" font-family="Space Grotesk, sans-serif" font-size="20" fill="#e8f0ea">yieldseeker</text>

  <rect x="260" y="120" width="900" height="500" rx="18" fill="url(#panel)" stroke="#1c1c1c" />
  <text x="300" y="165" font-family="IBM Plex Mono, monospace" font-size="16" fill="#9aa4a0">Fund Your Agent</text>

  <rect x="300" y="200" width="820" height="70" rx="12" fill="#0a0a0a" stroke="#1b1b1b" />
  <text x="330" y="245" font-family="IBM Plex Mono, monospace" font-size="14" fill="#5b5f5d">Amount in USDC</text>
  <text x="980" y="245" font-family="IBM Plex Mono, monospace" font-size="14" fill="#2bf58c">Deposit</text>

  <rect x="300" y="300" width="400" height="48" rx="10" fill="#0f2418" stroke="#1f3a2c" />
  <text x="330" y="330" font-family="IBM Plex Mono, monospace" font-size="12" fill="#2bf58c">Buy USDC with card or bank</text>
  <rect x="720" y="300" width="400" height="48" rx="10" fill="#0f2418" stroke="#1f3a2c" />
  <text x="750" y="330" font-family="IBM Plex Mono, monospace" font-size="12" fill="#2bf58c">Convert any asset from any chain</text>

  <text x="300" y="390" font-family="IBM Plex Mono, monospace" font-size="16" fill="#9aa4a0">Recent Activity</text>
  <rect x="300" y="420" width="820" height="150" rx="12" fill="#0a0a0a" stroke="#1b1b1b" />
  <circle cx="330" cy="450" r="6" fill="#2bf58c" />
  <text x="350" y="455" font-family="IBM Plex Mono, monospace" font-size="12" fill="#e8f0ea">Autoseek: stay</text>
  <circle cx="330" cy="490" r="6" fill="#2bf58c" />
  <text x="350" y="495" font-family="IBM Plex Mono, monospace" font-size="12" fill="#e8f0ea">Autoseek: stay</text>
  <circle cx="330" cy="530" r="6" fill="#2bf58c" />
  <text x="350" y="535" font-family="IBM Plex Mono, monospace" font-size="12" fill="#e8f0ea">Autoseek: stay</text>
</svg>
