<svg width="1200" height="700" viewBox="0 0 1200 700" xmlns="http://www.w3.org/2000/svg">
  <defs>
    <linearGradient id="chartGlow" x1="0" y1="0" x2="1" y2="0">
      <stop offset="0%" stop-color="#2bf58c" stop-opacity="0.2" />
      <stop offset="100%" stop-color="#2bf58c" stop-opacity="0.9" />
    </linearGradient>
    <linearGradient id="areaGlow" x1="0" y1="0" x2="0" y2="1">
      <stop offset="0%" stop-color="#2bf58c" stop-opacity="0.4" />
      <stop offset="100%" stop-color="#2bf58c" stop-opacity="0" />
    </linearGradient>
  </defs>
  <rect width="1200" height="700" fill="#070707" />
  <rect x="0" y="0" width="220" height="700" fill="#0b0b0b" />
  <rect x="0" y="0" width="1200" height="64" fill="#090909" />
  <circle cx="40" cy="32" r="12" fill="#2bf58c" />
  <text x="62" y="38" font-family="Space Grotesk, sans-serif" font-size="20" fill="#e8f0ea">yieldseeker</text>

  <rect x="260" y="120" width="900" height="480" rx="18" fill="#0d0d0d" stroke="#1c1c1c" />
  <text x="300" y="165" font-family="IBM Plex Mono, monospace" font-size="16" fill="#9aa4a0">Agent 0 · Overview</text>
  <text x="300" y="210" font-family="Space Grotesk, sans-serif" font-size="32" fill="#2bf58c">51,743.17 USDC</text>

  <rect x="300" y="260" width="820" height="260" rx="12" fill="#0a0a0a" stroke="#1b1b1b" />
  <path d="M310 480 L380 470 L450 460 L520 440 L590 420 L660 390 L730 360 L800 320 L870 270 L940 230 L1080 190 L1100 185" fill="none" stroke="url(#chartGlow)" stroke-width="4" />
  <path d="M310 520 L310 480 L380 470 L450 460 L520 440 L590 420 L660 390 L730 360 L800 320 L870 270 L940 230 L1080 190 L1100 185 L1100 520 Z" fill="url(#areaGlow)" />

  <text x="300" y="560" font-family="IBM Plex Mono, monospace" font-size="14" fill="#5b5f5d">Balance · Yield · Forecast</text>
  <text x="920" y="560" font-family="IBM Plex Mono, monospace" font-size="14" fill="#2bf58c">Yield</text>

  <rect x="260" y="620" width="900" height="60" rx="14" fill="#0b0b0b" stroke="#1c1c1c" />
  <text x="300" y="655" font-family="IBM Plex Mono, monospace" font-size="14" fill="#9aa4a0">Holdings · USDC · Vault</text>
</svg>
